<?xml version="1.0" encoding="UTF-8"?>
<svg version="1.1" xmlns="http://www.w3.org/2000/svg" width="512" height="512">
<path d="M0 0 C4.08833619 -0.57285524 6.1873375 -0.57843934 9.59204102 1.8449707 C10.38795654 2.69663818 11.18387207 3.54830566 12.00390625 4.42578125 C12.90230225 5.36260742 13.80069824 6.29943359 14.72631836 7.26464844 C15.18940399 7.76283081 15.65248962 8.26101318 16.12960815 8.77429199 C18.53760104 11.35927002 21.00860531 13.88258385 23.4765625 16.41015625 C23.9581633 16.90562958 24.4397641 17.40110291 24.93595886 17.91159058 C30.50620749 23.60611714 36.4917097 28.43711215 43 33 C43.58765137 33.4213623 44.17530273 33.84272461 44.78076172 34.27685547 C54.03784108 40.88133581 63.65571019 46.29097416 74 51 C75.78470703 51.81791016 75.78470703 51.81791016 77.60546875 52.65234375 C87.34436523 56.82615653 97.30030187 59.18562005 107.61669922 61.46679688 C117.72921615 63.72921615 117.72921615 63.72921615 119 65 C123.33850524 113.92038672 103.69641943 166.65235095 74 205 C73.03320312 206.25490234 73.03320312 206.25490234 72.046875 207.53515625 C66.74099842 214.29283764 66.74099842 214.29283764 63.67199516 217.22170162 C58.06721006 222.66306369 55.96952994 226.44175856 55.8500824 234.26727295 C55.87780228 235.41407532 55.90552216 236.56087769 55.93408203 237.74243164 C55.9278331 238.9778923 55.92158417 240.21335297 55.91514587 241.48625183 C55.90813202 244.15559743 55.91716742 246.81879954 55.95492935 249.48729134 C56.01471385 253.71254473 56.01146709 257.93639468 56.0007019 262.16197205 C55.99117849 268.84848522 56.02465335 275.53398995 56.07607162 282.22028583 C56.16671352 294.18790803 56.18394421 306.15576037 56.18526542 318.12368864 C56.18743124 322.31628714 56.20835305 326.50824348 56.24545598 330.70067418 C56.27110175 333.92938859 56.2783887 337.15817074 56.28955078 340.38696289 C56.30512527 341.53578949 56.32069977 342.68461609 56.33674622 343.86825562 C56.33997169 351.2721047 55.87663431 358.32600437 51.16796875 364.33984375 C50.51441406 364.86707031 49.86085938 365.39429688 49.1875 365.9375 C48.21876953 366.75541016 48.21876953 366.75541016 47.23046875 367.58984375 C40.88800241 371.59970426 34.50628441 371.26429941 27.2578125 371.1953125 C26.13430389 371.1924826 25.01079529 371.18965271 23.85324097 371.18673706 C20.27705073 371.17557303 16.7011141 371.15047501 13.125 371.125 C10.69531613 371.11496533 8.26562831 371.10584033 5.8359375 371.09765625 C-0.10946102 371.07564604 -6.05471239 371.04220589 -12 371 C-11.98889694 371.79211884 -11.97779388 372.58423767 -11.96635437 373.40036011 C-11.86574683 380.90242403 -11.78983121 388.40415619 -11.74093914 395.90672112 C-11.71495709 399.76297904 -11.67977182 403.61867486 -11.62280273 407.47460938 C-11.56807019 411.20292732 -11.53849402 414.93070812 -11.52561378 418.65939713 C-11.51644706 420.07467214 -11.498548 421.48992111 -11.47134972 422.90496445 C-11.31250378 431.51980386 -11.63198224 438.91591076 -17 446 C-22.19266955 450.25707543 -26.89432047 452.12243289 -33.62546825 452.13422108 C-34.80389551 452.13867892 -35.98232277 452.14313676 -37.19645995 452.14772969 C-39.14787751 452.14745315 -39.14787751 452.14745315 -41.13871765 452.14717102 C-42.52978884 452.15046979 -43.92085908 452.15419539 -45.31192809 452.1583125 C-49.14343854 452.16833912 -52.97493331 452.17205036 -56.80645502 452.17470181 C-60.93543501 452.1786029 -65.06440257 452.18818137 -69.19337463 452.19691467 C-79.1692578 452.21668459 -89.14514198 452.22674595 -99.12103984 452.23564246 C-103.81757452 452.24002449 -108.51410807 452.24539152 -113.21064186 452.25063133 C-128.82078537 452.26764412 -144.43092817 452.28213864 -160.04107952 452.28938007 C-164.09273466 452.29129 -168.1443898 452.29321033 -172.19604492 452.29516602 C-173.70659413 452.29589163 -173.70659413 452.29589163 -175.24765948 452.2966319 C-191.56361211 452.3049335 -207.87949144 452.33027239 -224.19541206 452.36274669 C-240.94233092 452.39580739 -257.68921253 452.41382794 -274.4361642 452.41702431 C-283.84070015 452.41919033 -293.24512924 452.4279523 -302.64963341 452.45348549 C-310.65843053 452.47517896 -318.66709483 452.48324958 -326.67591801 452.47351871 C-330.76199645 452.46897007 -334.84780076 452.4708928 -338.93384171 452.49028015 C-342.67646916 452.50788467 -346.41862196 452.5069365 -350.16125426 452.49138286 C-352.15246522 452.48787729 -354.14368099 452.50405333 -356.13482302 452.52098733 C-364.17354941 452.46309273 -369.84303143 451.66791345 -376.05859375 446.18359375 C-376.51363281 445.60738281 -376.96867187 445.03117187 -377.4375 444.4375 C-377.91058594 443.85871094 -378.38367188 443.27992188 -378.87109375 442.68359375 C-381.57170466 438.65603907 -381.14823676 434.35919914 -381.14717102 429.71392822 C-381.15084771 428.85875791 -381.1545244 428.0035876 -381.1583125 427.12250304 C-381.16935905 424.24605069 -381.17319482 421.36963446 -381.17700195 418.49316406 C-381.18326584 416.4351388 -381.18991257 414.37711468 -381.19691467 412.3190918 C-381.21433053 406.71980839 -381.22487791 401.12053353 -381.2331202 395.52122974 C-381.23826884 392.02405715 -381.24434461 388.52688721 -381.25063133 385.02971649 C-381.26968455 374.0909682 -381.28391574 363.15222667 -381.2922433 352.21346498 C-381.30201895 339.58067273 -381.32834658 326.94805556 -381.36874419 314.31532502 C-381.39888763 304.55472483 -381.41371047 294.79417488 -381.41702431 285.03352904 C-381.41937669 279.20212654 -381.42836176 273.37091104 -381.45348549 267.53955841 C-381.47674027 262.05333986 -381.48100977 256.56743179 -381.47072411 251.08117676 C-381.47022802 249.06840737 -381.47656991 247.05562284 -381.49028015 245.04290009 C-381.50796338 242.29289622 -381.50091049 239.54401092 -381.48774719 236.79400635 C-381.49871644 235.99934345 -381.50968568 235.20468056 -381.52098733 234.38593698 C-381.45090172 228.31248024 -379.88526376 224.07056302 -375.62348729 219.53508401 C-368.87028303 213.46195272 -361.83785585 213.72302743 -353.2578125 213.8046875 C-351.57254959 213.80893234 -351.57254959 213.80893234 -349.85324097 213.81326294 C-346.27705073 213.82442697 -342.7011141 213.84952499 -339.125 213.875 C-336.69531613 213.88503467 -334.26562831 213.89415967 -331.8359375 213.90234375 C-325.89053898 213.92435396 -319.94528761 213.95779411 -314 214 C-314.00999275 212.82395203 -314.00999275 212.82395203 -314.02018738 211.62414551 C-314.08047572 204.20971957 -314.12606398 196.79541368 -314.15543652 189.38080597 C-314.17104525 185.56951886 -314.1921949 181.7584355 -314.22631836 177.94726562 C-314.2590842 174.26437904 -314.276889 170.58168756 -314.28463173 166.89866638 C-314.29014453 165.49853955 -314.30090926 164.09842254 -314.31719017 162.69837952 C-314.5012444 146.20442319 -314.5012444 146.20442319 -309.1328125 139.7578125 C-308.47023438 139.21898437 -307.80765625 138.68015625 -307.125 138.125 C-306.46757812 137.57070312 -305.81015625 137.01640625 -305.1328125 136.4453125 C-300.23169211 133.12404044 -295.79776206 132.71407055 -289.99577332 132.75949097 C-288.79492606 132.75692769 -288.79492606 132.75692769 -287.56981927 132.75431263 C-284.89044892 132.75102149 -282.21132966 132.76201524 -279.53198242 132.77294922 C-277.61008714 132.77351341 -275.68819142 132.77319661 -273.76629639 132.77206421 C-268.54977896 132.77149002 -263.33335337 132.78325511 -258.11685729 132.79721212 C-252.66493046 132.8097084 -247.21300156 132.81088911 -241.76106262 132.81326294 C-231.43745435 132.81948095 -221.11388839 132.83589613 -210.79029876 132.85596192 C-199.03708707 132.87831092 -187.28387337 132.88931184 -175.53064573 132.89935279 C-151.35374035 132.92026205 -127.17687255 132.95544429 -103 133 C-103.14230042 132.44650879 -103.28460083 131.89301758 -103.43121338 131.32275391 C-104.08826086 128.75781988 -104.73946072 126.19143364 -105.390625 123.625 C-105.72634521 122.31982422 -105.72634521 122.31982422 -106.06884766 120.98828125 C-109.28504638 108.26485774 -111.42946036 95.12241174 -112 82 C-112.03254883 81.33774414 -112.06509766 80.67548828 -112.09863281 79.99316406 C-112.19586162 77.80797126 -112.25897585 75.62416928 -112.3125 73.4375 C-112.34239014 72.74567627 -112.37228027 72.05385254 -112.40307617 71.34106445 C-112.42578125 69.37109375 -112.42578125 69.37109375 -112 66 C-109.20796766 63.35554822 -106.52993428 62.3861743 -102.84375 61.45703125 C-101.83135254 61.19237061 -100.81895508 60.92770996 -99.77587891 60.6550293 C-98.15431885 60.23797729 -98.15431885 60.23797729 -96.5 59.8125 C-61.74878021 50.43252445 -20.65828015 30.98742023 0 0 Z M3 13 C2.5153125 13.56847656 2.030625 14.13695312 1.53125 14.72265625 C0.8609375 15.49480469 0.190625 16.26695313 -0.5 17.0625 C-1.1496875 17.81660156 -1.799375 18.57070313 -2.46875 19.34765625 C-25.92023037 43.92104386 -57.37803369 59.26585798 -89.37792969 69.1796875 C-93.27061831 70.39751187 -97.13611667 71.69410071 -101 73 C-103.86827679 121.28265922 -81.11795891 172.68002931 -49.91772461 208.6159668 C-38.67167808 221.22484359 -26.76302129 233.15735447 -13 243 C-12.34805664 243.47501953 -11.69611328 243.95003906 -11.02441406 244.43945312 C-9.00973642 245.89786069 -6.97845036 247.32864613 -4.9375 248.75 C-4.31786377 249.1934375 -3.69822754 249.636875 -3.05981445 250.09375 C-0.43917029 251.86262199 1.3849178 253.00555797 4.59375 252.9765625 C20.08557171 246.6892972 34.07891207 232.39491577 46 221 C46.67675781 220.36449219 47.35351562 219.72898438 48.05078125 219.07421875 C53.18495207 214.12889099 57.58917594 208.58803724 62 203 C63.0828125 201.64261719 63.0828125 201.64261719 64.1875 200.2578125 C74.5295635 186.92393777 82.88920536 172.2763772 90 157 C90.53238281 155.86433594 91.06476563 154.72867188 91.61328125 153.55859375 C102.78713275 128.64119364 109.29403036 100.34482318 109 73 C108.37770508 72.86013672 107.75541016 72.72027344 107.11425781 72.57617188 C68.56735765 63.77757668 39.28971945 46.11637294 10.65625 19.41015625 C8.17830895 17.16178915 5.63650685 15.05857691 3 13 Z M-302 148 C-307.36863318 158.73726636 -303 171.99537126 -303 184 C-229.41 184 -155.82 184 -80 184 C-82.64 179.05 -85.28 174.1 -88 169 C-89.88070795 164.71769561 -91.70403894 160.4627865 -93.4375 156.125 C-94.28834325 154.02261832 -95.1410971 151.9210085 -95.99609375 149.8203125 C-96.54027954 148.46317139 -96.54027954 148.46317139 -97.09545898 147.07861328 C-97.82689374 145.05103131 -97.82689374 145.05103131 -99 144 C-101.54315349 143.89337375 -104.05947549 143.85221515 -106.60345459 143.85282898 C-107.40932455 143.84915229 -108.21519452 143.8454756 -109.04548478 143.8416875 C-111.76698313 143.83060562 -114.48844336 143.82679922 -117.20996094 143.82299805 C-119.15271121 143.81673677 -121.09546027 143.81009027 -123.03820801 143.80308533 C-128.33169994 143.78564363 -133.62518282 143.77511485 -138.9186964 143.7668798 C-142.22320655 143.76173613 -145.52771384 143.75566011 -148.83222198 143.74936867 C-159.16335372 143.73030737 -169.49447827 143.7160785 -179.82562423 143.7077567 C-191.76569492 143.69798119 -203.70558038 143.67165736 -215.64558578 143.63125581 C-224.86429306 143.60112905 -234.08294716 143.58629107 -243.30170274 143.58297569 C-248.81225935 143.58062115 -254.32261829 143.57160853 -259.83312225 143.54651451 C-265.01726793 143.52328913 -270.20108502 143.51897826 -275.38526917 143.52927589 C-277.28922364 143.52977272 -279.19319398 143.52340913 -281.0970993 143.50971985 C-283.69466659 143.49208665 -286.29104374 143.49906437 -288.88861084 143.51225281 C-289.64377228 143.50128356 -290.39893371 143.49031432 -291.17697883 143.47901267 C-296.06342132 143.53899405 -298.57547777 144.51054113 -302 148 Z M-303 194 C-303 200.6 -303 207.2 -303 214 C-222.48 214 -141.96 214 -59 214 C-60.98 211.36 -62.96 208.72 -65 206 C-65.58731116 204.89174236 -66.17462233 203.78348473 -66.7797308 202.64164352 C-69.1691285 198.38958995 -71.33844087 194.85027544 -76.09717488 193.33002567 C-82.69347227 192.20001372 -89.37867901 192.49798252 -96.04321289 192.63769531 C-98.3006675 192.6410825 -100.55813533 192.6391757 -102.81558228 192.63238525 C-108.92965509 192.62894737 -115.0408928 192.69940437 -121.1543076 192.78327274 C-127.54831702 192.85838002 -133.94239426 192.86534456 -140.33677673 192.87957764 C-151.06454709 192.91261672 -161.79108034 192.98752529 -172.51831055 193.09472656 C-183.56383095 193.20499337 -194.6090691 193.28987503 -205.6550293 193.34082031 C-206.33668677 193.34397299 -207.01834425 193.34712568 -207.72065801 193.35037389 C-211.14057285 193.36603514 -214.56048968 193.38119944 -217.98040783 193.39611673 C-246.32100915 193.52037734 -274.66039527 193.73492808 -303 194 Z M-370 230 C-371.56083015 233.12166029 -371.14798517 236.44175374 -371.14717102 239.86883545 C-371.15084771 240.69118848 -371.1545244 241.51354151 -371.1583125 242.36081433 C-371.16937583 245.13215067 -371.17319766 247.90344954 -371.17700195 250.67480469 C-371.1832646 252.65548828 -371.18991122 254.63617069 -371.19691467 256.61685181 C-371.21434283 262.00952215 -371.22488137 267.40218361 -371.2331202 272.79487514 C-371.23826649 276.16221459 -371.24434238 279.52955125 -371.25063133 282.89688873 C-371.26968843 293.42717728 -371.28391849 303.95745878 -371.2922433 314.48776126 C-371.30201877 326.65307238 -371.3283443 338.8182017 -371.36874419 350.98344874 C-371.39888016 360.37968501 -371.41370978 369.77586909 -371.41702431 379.17215276 C-371.41937767 384.78724171 -371.42837526 390.40213655 -371.45348549 396.01717377 C-371.47672709 401.29982708 -371.48101514 406.58215795 -371.47072411 411.86484909 C-371.47022768 413.80386043 -371.47657936 415.74288743 -371.49028015 417.68185043 C-371.5079409 420.329365 -371.50092182 422.97571509 -371.48774719 425.62322998 C-371.49871644 426.39036025 -371.50968568 427.15749052 -371.52098733 427.94786716 C-371.45916729 433.09438154 -370.26454935 436.04274473 -367 440 C-364.38101054 441.30949473 -362.45493249 441.12906136 -359.52043438 441.13422108 C-358.34911486 441.13867892 -357.17779535 441.14313676 -355.9709813 441.14772969 C-354.67285895 441.14754533 -353.37473661 441.14736097 -352.03727722 441.14717102 C-350.6531806 441.15046877 -349.26908494 441.15419415 -347.88499051 441.1583125 C-344.06823203 441.16835063 -340.25148926 441.17205219 -336.43471944 441.17470181 C-332.32350262 441.17859946 -328.21229832 441.18817812 -324.10108948 441.19691467 C-314.16633266 441.21669368 -304.2315748 441.22674682 -294.29680321 441.23564246 C-289.62179607 441.24002275 -284.94679007 441.2453902 -280.27178383 441.25063133 C-264.73716435 441.26764455 -249.20254558 441.28213985 -233.66791821 441.28938007 C-229.63497606 441.29129006 -225.60203392 441.29321038 -221.5690918 441.29516602 C-220.56668779 441.29564976 -219.56428378 441.2961335 -218.53150389 441.2966319 C-202.28459267 441.30493641 -186.03775497 441.33028001 -169.79087587 441.36274669 C-153.121974 441.395786 -136.45310954 441.41382597 -119.78417474 441.41702431 C-110.42052008 441.41919225 -101.05697265 441.42798224 -91.69334984 441.45348549 C-83.72067438 441.47514976 -75.7481322 441.48326403 -67.77543064 441.47351871 C-63.70593264 441.46896163 -59.63670988 441.47094146 -55.5672493 441.49028015 C-51.843242 441.50782476 -48.11971249 441.5069857 -44.39570073 441.49138286 C-42.40719543 441.48785974 -40.41868561 441.5040978 -38.43024892 441.52098733 C-36.66153478 441.50811599 -36.66153478 441.50811599 -34.85708904 441.49498463 C-33.83938354 441.49596144 -32.82167804 441.49693824 -31.77313298 441.49794465 C-28.2492382 440.86519297 -26.56505678 439.44550791 -24 437 C-22.51526888 434.03053775 -22.81943143 430.99270738 -22.79226685 427.73426819 C-22.77722668 426.59791031 -22.77722668 426.59791031 -22.76188266 425.43859571 C-22.72965776 422.8862616 -22.70480926 420.33391207 -22.68017578 417.78149414 C-22.65918625 415.95670283 -22.63793993 414.13191445 -22.61645508 412.30712891 C-22.42847358 395.62547639 -22.32583921 378.94282901 -22.24431038 362.26035404 C-22.18276733 349.93048014 -22.07930733 337.60243389 -21.92161572 325.273408 C-21.81445646 316.60324678 -21.75724715 307.93358775 -21.73617923 299.26279539 C-21.72212315 294.08533529 -21.68580844 288.91026708 -21.594944 283.73353767 C-21.51022218 278.85628343 -21.48757328 273.98256218 -21.51130676 269.10466766 C-21.50933649 267.32078889 -21.48531149 265.5367678 -21.43687057 263.75354576 C-20.97905557 253.54720124 -20.97905557 253.54720124 -25.53728867 244.84380913 C-28.2488808 242.37889552 -31.23336609 240.38958364 -34.26604724 238.34540248 C-36.06854808 236.94681242 -37.30099528 235.52845289 -38.68308449 233.72014809 C-43.35341773 227.82459587 -47.59046242 224.88237298 -55.18247986 223.9217968 C-62.50402231 223.38156135 -69.81684163 223.42918569 -77.1511426 223.53391731 C-81.00935959 223.57575427 -84.86718477 223.54771696 -88.72549438 223.52870178 C-96.26656256 223.5024143 -103.80601762 223.53969127 -111.34684736 223.59882861 C-120.13197101 223.66527021 -128.91677007 223.66768805 -137.70210248 223.66754205 C-153.37368528 223.66941308 -169.04452773 223.72838888 -184.71582031 223.82006836 C-199.91969404 223.90895735 -215.12301165 223.95843701 -230.32714844 223.96362305 C-231.73362071 223.96411155 -231.73362071 223.96411155 -233.16850656 223.96460991 C-234.57256355 223.96508629 -234.57256355 223.96508629 -236.00498533 223.9655723 C-237.88967356 223.96622811 -239.77436178 223.96690297 -241.65904999 223.96759701 C-243.05327433 223.96810784 -243.05327433 223.96810784 -244.47566482 223.968629 C-258.97563038 223.97563593 -273.47551138 224.01961647 -287.97539267 224.06694634 C-293.22875852 224.08357642 -298.48210077 224.09448772 -303.73548824 224.10120826 C-312.06246367 224.11191733 -320.38903923 224.13839572 -328.7158187 224.19833475 C-332.52007769 224.22540647 -336.32393509 224.24467027 -340.12829971 224.2424736 C-344.24923138 224.2404482 -348.3688944 224.2771428 -352.48962402 224.31797791 C-353.69573192 224.31159913 -354.90183982 224.30522036 -356.14449644 224.2986483 C-362.62828832 224.40069889 -366.19522856 224.48200994 -370 230 Z M39.13574219 241.0144043 C11.67847974 264 11.67847974 264 2.8125 264 C-1.5874008 262.84592766 -4.4448606 260.93792469 -8.08203125 258.27734375 C-9.89337207 256.81523035 -9.89337207 256.81523035 -12 257 C-12 290.99 -12 324.98 -12 360 C18.05043522 363.84534188 18.05043522 363.84534188 44 356 C44.96967004 353.09098987 45.12352446 351.26012509 45.12025452 348.23542786 C45.12162918 347.25526199 45.12300385 346.27509613 45.12442017 345.26522827 C45.12082489 344.19132843 45.11722961 343.11742859 45.11352539 342.01098633 C45.11367142 340.87913406 45.11381744 339.7472818 45.1139679 338.58113098 C45.11326995 334.83141173 45.10548304 331.08174185 45.09765625 327.33203125 C45.09579165 324.73557055 45.09436795 322.13910949 45.09336853 319.54264832 C45.08993752 313.40161011 45.08205206 307.26059235 45.07201904 301.11956185 C45.06084438 294.1280921 45.05534404 287.13662151 45.05032361 280.14514506 C45.03986909 265.76342048 45.02227808 251.38171087 45 237 C42.67468861 237 40.85860988 239.56989711 39.13574219 241.0144043 Z " fill="#000000" transform="translate(387,33)"/>
<path d="M0 0 C0.59167969 -0.55429688 1.18335938 -1.10859375 1.79296875 -1.6796875 C2.97826172 -2.76636719 2.97826172 -2.76636719 4.1875 -3.875 C4.96480469 -4.59429687 5.74210937 -5.31359375 6.54296875 -6.0546875 C10.72364042 -9.36466285 14.51599529 -10.47470525 19.87890625 -10.3125 C25.32137827 -9.5106625 29.04504417 -7.1998163 32.4375 -2.9375 C35.20169221 2.25918135 36.08120995 7.28881992 34.421875 12.984375 C32.4519458 17.46148681 29.79682208 20.22237574 26.1875 23.5 C23.03832659 26.33350199 23.03832659 26.33350199 21.60546875 30.13671875 C21.86376307 32.51371287 21.86376307 32.51371287 23 36 C26.67615496 54.74321263 21.76294435 70.62874977 11.56640625 86.1875 C2.80999396 97.41233712 -11.20008809 104.47230884 -25 107 C-42.50433574 108.61486906 -57.79746787 105.50696813 -72.01953125 94.70703125 C-83.62246776 84.72310913 -91.71934925 71.10668194 -93.22290039 55.71875 C-94.10957435 37.97761053 -90.04476355 24.30615418 -79.6875 9.75 C-57.45759496 -12.99687957 -26.86990496 -15.26699145 0 0 Z M-72 18 C-79.95795066 28.36175939 -84.05857045 39.88548835 -83 53 C-81.08496177 65.80478953 -75.95719056 77.59344145 -65.71484375 85.83984375 C-55.13885654 93.57159329 -43.30574453 98.38017447 -30 97 C-15.32802904 94.45181508 -3.32703458 87.91589079 5.375 75.5625 C10.75450494 66.87604726 13.17902972 58.47157763 13.1875 48.375 C13.19974609 47.59898437 13.21199219 46.82296875 13.22460938 46.0234375 C13.22984167 44.01423638 13.12248735 42.00547086 13 40 C12.34 39.34 11.68 38.68 11 38 C10.15816162 38.85754883 9.31632324 39.71509766 8.44897461 40.59863281 C5.30521452 43.79694636 2.15132878 46.98511375 -1.00561523 50.17041016 C-2.36709647 51.54692021 -3.72586586 52.92611827 -5.08178711 54.30810547 C-7.03822718 56.30118838 -9.00441617 58.28420233 -10.97265625 60.265625 C-11.57086685 60.87931946 -12.16907745 61.49301392 -12.78541565 62.12530518 C-17.23163569 66.57326203 -21.68308823 70.42461735 -28.0625 71.53125 C-29.5165625 71.51578125 -29.5165625 71.51578125 -31 71.5 C-31.969375 71.5103125 -32.93875 71.520625 -33.9375 71.53125 C-42.29211937 70.08197929 -47.60199659 63.85677608 -53.3125 58.0625 C-54.12267578 57.26392578 -54.93285156 56.46535156 -55.76757812 55.64257812 C-56.54166016 54.86462891 -57.31574219 54.08667969 -58.11328125 53.28515625 C-58.81235596 52.58269775 -59.51143066 51.88023926 -60.23168945 51.15649414 C-63.79606734 46.80965583 -64.39477051 42.65792775 -64.25 37.2109375 C-63.72192557 32.54077928 -61.86510488 29.78070441 -58.4375 26.6875 C-53.47429041 23.25143182 -48.92343537 23.40192146 -43 24 C-38.33770281 25.66943109 -34.84388894 28.92488885 -31 32 C-23.74 24.74 -16.48 17.48 -9 10 C-9.68665795 6.78361734 -9.68665795 6.78361734 -12.58203125 5.6484375 C-13.64808594 5.22820312 -14.71414063 4.80796875 -15.8125 4.375 C-16.87082031 3.94960937 -17.92914063 3.52421875 -19.01953125 3.0859375 C-38.49826931 -4.01116496 -58.32788764 3.40134779 -72 18 Z M10.57446289 4.83959961 C9.75663834 5.6772435 8.93881378 6.51488739 8.09620667 7.37791443 C7.23043503 8.2934761 6.36466339 9.20903778 5.47265625 10.15234375 C4.08662545 11.57308822 2.70057729 12.99381622 1.31352139 14.41355991 C-1.60756648 17.41345029 -4.50109505 20.43992805 -7.3994751 23.46173096 C-9.78649894 25.94830158 -12.17924107 28.42867069 -14.58802795 30.8941803 C-16.39205337 32.74334061 -18.18239949 34.60596796 -19.95726013 36.48313904 C-26.75139094 43.44128809 -26.75139094 43.44128809 -30.97851562 44.16113281 C-34 44 -34 44 -36.00390625 42.70703125 C-36.51824219 42.08183594 -37.03257812 41.45664063 -37.5625 40.8125 C-40.53809307 37.49075292 -43.02490806 35.07396101 -47 33 C-49.70441532 32.74058283 -49.70441532 32.74058283 -52 34 C-54.07976712 36.16071467 -54.07976712 36.16071467 -55 39 C-53.88495374 42.80393783 -52.23147608 45.14489738 -49.4453125 47.91796875 C-48.74792969 48.61470703 -48.05054688 49.31144531 -47.33203125 50.02929688 C-46.60371094 50.74150391 -45.87539063 51.45371094 -45.125 52.1875 C-44.40441406 52.91130859 -43.68382812 53.63511719 -42.94140625 54.38085938 C-38.52348899 59.00773448 -38.52348899 59.00773448 -33 62 C-27.67790128 61.69302281 -25.37176837 60.00534998 -21.63720703 56.30004883 C-21.13889877 55.81210846 -20.64059052 55.32416809 -20.12718201 54.82144165 C-18.4911696 53.21243193 -16.87412688 51.58581014 -15.2578125 49.95703125 C-14.12361185 48.8287413 -12.98874438 47.7011213 -11.85324097 46.57414246 C-9.47972857 44.21249828 -7.11572422 41.84181649 -4.7578125 39.46459961 C-1.73653145 36.42041387 1.30891347 33.40179115 4.36215019 30.38969898 C6.70970408 28.06772607 9.04300836 25.73183832 11.37234879 23.39160728 C12.48975405 22.272716 13.61175598 21.15839563 14.73839951 20.04880714 C16.31166312 18.49552185 17.86450053 16.92428518 19.41357422 15.34692383 C20.30148651 14.45725418 21.1893988 13.56758453 22.10421753 12.6509552 C24.3770456 9.47276071 24.49079218 7.82637058 24 4 C23 2 23 2 21 1 C15.9728987 0.45087261 14.04241678 1.21853626 10.57446289 4.83959961 Z " fill="#000000" transform="translate(420,112)"/>
<path d="M0 0 C5.14545705 0.50686592 7.71365296 2.49569443 11.73828125 5.57421875 C12.46313721 6.10724609 13.18799316 6.64027344 13.93481445 7.18945312 C15.4759481 8.32347929 17.01222219 9.46413476 18.54394531 10.61083984 C21.75417282 13.00436125 25.00130371 15.344925 28.25073242 17.68481445 C29.78967312 18.79341791 31.32641282 19.90508522 32.8605957 21.02026367 C35.98956878 23.29299147 39.11400977 25.52738735 42.37109375 27.61328125 C44.92578125 29.38671875 44.92578125 29.38671875 46.11328125 31.76171875 C45.83763228 35.6208043 43.55297862 37.74751748 40.92578125 40.38671875 C38.6307533 42.23573118 36.20712407 43.84256005 33.73828125 45.44921875 C32.32281038 46.39503109 30.90880756 47.34304325 29.49609375 48.29296875 C28.75649414 48.78925781 28.01689453 49.28554687 27.25488281 49.796875 C23.14917159 52.59943176 19.13348407 55.52591679 15.11328125 58.44921875 C13.60690928 59.54446128 12.10040837 60.63952649 10.59375 61.734375 C9.95719482 62.19851807 9.32063965 62.66266113 8.66479492 63.14086914 C4.74197258 65.95122466 2.77600903 66.79950409 -2.07421875 66.38671875 C-4.07421875 64.38671875 -4.07421875 64.38671875 -4.26953125 62.00390625 C-4.24632812 61.09898437 -4.223125 60.1940625 -4.19921875 59.26171875 C-4.18117187 58.35164063 -4.163125 57.4415625 -4.14453125 56.50390625 C-4.12132812 55.80523437 -4.098125 55.1065625 -4.07421875 54.38671875 C-4.72932434 54.39115997 -5.38442993 54.3956012 -6.05938721 54.400177 C-12.87241436 54.44439443 -19.68540079 54.47457863 -26.49853516 54.49658203 C-29.04184627 54.50664491 -31.5851458 54.52029649 -34.12841797 54.53759766 C-37.78225563 54.56183302 -41.43594043 54.57319902 -45.08984375 54.58203125 C-46.22850891 54.59235382 -47.36717407 54.60267639 -48.54034424 54.61331177 C-49.60114197 54.61346283 -50.6619397 54.61361389 -51.75488281 54.61376953 C-53.1538681 54.62043137 -53.1538681 54.62043137 -54.58111572 54.62722778 C-57.19703999 54.37487022 -58.82818368 53.71451917 -61.07421875 52.38671875 C-61.14825115 47.01158686 -61.20276444 41.63675021 -61.23901367 36.26123047 C-61.25412126 34.43175082 -61.27460843 32.6023075 -61.30053711 30.77294922 C-61.3368346 28.14671883 -61.3539249 25.52096626 -61.3671875 22.89453125 C-61.38267136 22.07365021 -61.39815521 21.25276917 -61.41410828 20.40701294 C-61.41479492 18.10205078 -61.41479492 18.10205078 -61.07421875 14.38671875 C-57.72804983 12.15593947 -56.67827916 12.14147838 -52.77661133 12.15966797 C-51.69571732 12.15981903 -50.6148233 12.15997009 -49.50117493 12.16012573 C-47.75262459 12.17560959 -47.75262459 12.17560959 -45.96875 12.19140625 C-44.77440842 12.19423615 -43.58006683 12.19706604 -42.34953308 12.19998169 C-38.52849378 12.21119198 -34.70768741 12.23629838 -30.88671875 12.26171875 C-28.29883151 12.27174744 -25.71094059 12.28087348 -23.12304688 12.2890625 C-16.77335779 12.3111341 -10.42380491 12.34462015 -4.07421875 12.38671875 C-4.08582031 11.60425781 -4.09742188 10.82179688 -4.109375 10.015625 C-4.11839844 9.00371094 -4.12742188 7.99179688 -4.13671875 6.94921875 C-4.14832031 5.93988281 -4.15992188 4.93054688 -4.171875 3.890625 C-4.02804297 0.20277182 -3.7318721 0.4694477 0 0 Z M5.92578125 15.38671875 C5.59578125 17.69671875 5.26578125 20.00671875 4.92578125 22.38671875 C-13.55421875 22.71671875 -32.03421875 23.04671875 -51.07421875 23.38671875 C-51.07421875 29.98671875 -51.07421875 36.58671875 -51.07421875 43.38671875 C-32.59421875 43.71671875 -14.11421875 44.04671875 4.92578125 44.38671875 C5.42078125 47.35671875 5.42078125 47.35671875 5.92578125 50.38671875 C11.05277171 48.77825116 14.85894859 45.62412685 19.05078125 42.38671875 C20.4695995 41.30279274 21.88885337 40.21943665 23.30859375 39.13671875 C23.93137207 38.6571875 24.55415039 38.17765625 25.19580078 37.68359375 C26.73355349 36.53082175 28.32669257 35.45277787 29.92578125 34.38671875 C28.48893498 30.86169409 26.82471751 29.31934292 23.6796875 27.22265625 C22.42381836 26.37574219 22.42381836 26.37574219 21.14257812 25.51171875 C19.82870117 24.64546875 19.82870117 24.64546875 18.48828125 23.76171875 C17.61623047 23.17648438 16.74417969 22.59125 15.84570312 21.98828125 C13.54455732 20.44592987 11.236805 18.91420953 8.92578125 17.38671875 C7.93578125 16.72671875 6.94578125 16.06671875 5.92578125 15.38671875 Z " fill="#000000" transform="translate(209.07421875,83.61328125)"/>
<path d="M0 0 C2.3125 0.5625 2.3125 0.5625 4.125 2.5625 C5.66646351 6.4567236 5.39381427 9.38551444 5.3125 13.5625 C6.32061234 13.55583817 6.32061234 13.55583817 7.34909058 13.54904175 C14.32401408 13.50490366 21.29889813 13.47467333 28.27392578 13.45263672 C30.87941091 13.44255936 33.48488469 13.4288973 36.09033203 13.41162109 C39.82847899 13.38744898 43.56647685 13.3760344 47.3046875 13.3671875 C48.47554901 13.35686493 49.64641052 13.34654236 50.85275269 13.33590698 C51.93372223 13.33575592 53.01469177 13.33560486 54.12841797 13.33544922 C55.08328094 13.331008 56.03814392 13.32656677 57.02194214 13.32199097 C59.3125 13.5625 59.3125 13.5625 61.3125 15.5625 C61.51232025 18.33585427 61.592292 21.00719643 61.578125 23.78125 C61.58003845 24.59493042 61.5819519 25.40861084 61.58392334 26.24694824 C61.58528527 27.968509 61.58158828 29.69008003 61.57324219 31.41162109 C61.56254258 34.0519917 61.573137 36.69168189 61.5859375 39.33203125 C61.58461591 41.00260567 61.58205352 42.67317967 61.578125 44.34375 C61.58217346 45.13648315 61.58622192 45.92921631 61.59039307 46.74597168 C61.54242027 52.33257973 61.54242027 52.33257973 59.3125 54.5625 C57.02194214 54.80300903 57.02194214 54.80300903 54.12841797 54.78955078 C53.04744843 54.78939972 51.96647888 54.78924866 50.85275269 54.78909302 C49.68189117 54.77877045 48.51102966 54.76844788 47.3046875 54.7578125 C45.5110527 54.75356766 45.5110527 54.75356766 43.68118286 54.74923706 C39.84985481 54.73801305 36.01875778 54.71290431 32.1875 54.6875 C29.59505545 54.67747308 27.00260725 54.66834673 24.41015625 54.66015625 C18.04419158 54.63806646 11.67836229 54.60456706 5.3125 54.5625 C5.3434375 55.820625 5.374375 57.07875 5.40625 58.375 C5.50126633 62.23899733 4.67185725 64.41669033 2.3125 67.5625 C-4.26067761 67.25236318 -7.86584243 64.75984457 -13 60.8125 C-14.5817286 59.63240673 -16.16376952 58.45273199 -17.74609375 57.2734375 C-18.55546387 56.66338867 -19.36483398 56.05333984 -20.19873047 55.42480469 C-24.27871006 52.37182408 -28.42301936 49.40899968 -32.5625 46.4375 C-34.03961255 45.37315879 -35.51621175 44.30810461 -36.9921875 43.2421875 C-37.61077637 42.79601074 -38.22936523 42.34983398 -38.86669922 41.89013672 C-39.46756348 41.4520166 -40.06842773 41.01389648 -40.6875 40.5625 C-41.40437988 40.05090332 -42.12125977 39.53930664 -42.85986328 39.01220703 C-44.6875 37.5625 -44.6875 37.5625 -45.625 35.6875 C-45.72057393 32.43798642 -44.64344687 31.18533161 -42.6875 28.5625 C-39.90687622 26.31323706 -36.93321397 24.38678404 -33.9375 22.4375 C-32.2186211 21.29250989 -30.5011915 20.14534135 -28.78515625 18.99609375 C-27.49955811 18.13733643 -27.49955811 18.13733643 -26.18798828 17.26123047 C-21.89941753 14.34774919 -17.7409336 11.26380156 -13.58496094 8.16552734 C-3.62798338 0.75934536 -3.62798338 0.75934536 0 0 Z M-10.51171875 19.265625 C-11.29353516 19.83410156 -12.07535156 20.40257812 -12.88085938 20.98828125 C-13.70392578 21.59027344 -14.52699219 22.19226563 -15.375 22.8125 C-20.41960738 26.49380932 -25.45701306 30.14874116 -30.6875 33.5625 C-27.00519956 37.61694783 -22.65285621 40.57160628 -18.1875 43.6875 C-17.42824219 44.22503906 -16.66898438 44.76257813 -15.88671875 45.31640625 C-12.56301069 47.650569 -9.36369442 49.81559044 -5.6875 51.5625 C-5.0275 49.5825 -4.3675 47.6025 -3.6875 45.5625 C23.5375 45.0675 23.5375 45.0675 51.3125 44.5625 C51.3125 37.6325 51.3125 30.7025 51.3125 23.5625 C33.1625 23.2325 15.0125 22.9025 -3.6875 22.5625 C-4.3475 20.5825 -5.0075 18.6025 -5.6875 16.5625 C-7.56512733 16.5625 -9.05407299 18.20077189 -10.51171875 19.265625 Z " fill="#000000" transform="translate(103.6875,26.4375)"/>
<path d="M0 0 C1.0046933 -0.00960754 2.0093866 -0.01921509 3.04452515 -0.02911377 C4.12891876 -0.03336365 5.21331238 -0.03761353 6.33056641 -0.04199219 C7.44646149 -0.04769226 8.56235657 -0.05339233 9.71206665 -0.05926514 C12.07414806 -0.06871553 14.43624267 -0.07524927 16.79833984 -0.07910156 C20.41087842 -0.08881008 24.02284882 -0.11983501 27.63525391 -0.15136719 C29.92952136 -0.157897 32.22379288 -0.16314756 34.51806641 -0.16699219 C35.59841156 -0.17933899 36.67875671 -0.19168579 37.7918396 -0.20440674 C47.12159586 -0.1767118 47.12159586 -0.1767118 51.05712891 3.16113281 C56.72555865 9.14447532 56.21559861 15.22062393 56.22509766 23.02832031 C56.23009026 24.4577446 56.23009026 24.4577446 56.23518372 25.91604614 C56.24023689 27.92823811 56.24259254 29.94043842 56.24243164 31.95263672 C56.24461625 35.01837077 56.262784 38.0837437 56.28173828 41.14941406 C56.28467297 43.10904826 56.28665726 45.06868415 56.28759766 47.02832031 C56.29478317 47.93895233 56.30196869 48.84958435 56.30937195 49.78781128 C56.26798208 61.41450184 56.26798208 61.41450184 52.65478516 65.90332031 C48.37680386 69.0601004 45.4846602 70.27813669 40.22192383 70.33813477 C39.24047897 70.35097 38.25903412 70.36380524 37.24784851 70.37702942 C36.18846573 70.38441635 35.12908295 70.39180328 34.03759766 70.39941406 C32.40060661 70.41152168 32.40060661 70.41152168 30.73054504 70.4238739 C28.41974474 70.43770942 26.10892404 70.44843395 23.7980957 70.45629883 C20.26881103 70.47351485 16.7404623 70.5174074 13.21142578 70.56152344 C10.96598996 70.57165024 8.72054618 70.58016638 6.47509766 70.58691406 C4.89513252 70.61317619 4.89513252 70.61317619 3.2832489 70.63996887 C-2.7970583 70.62201719 -6.30999661 70.21236449 -10.94287109 66.16113281 C-14.45929395 62.28094208 -15.05955357 58.72006448 -15.10400391 53.59545898 C-15.11361145 52.69740036 -15.12321899 51.79934174 -15.13311768 50.87406921 C-15.13736755 49.91047989 -15.14161743 48.94689056 -15.14599609 47.95410156 C-15.15169617 46.955345 -15.15739624 45.95658844 -15.16326904 44.92756653 C-15.17270838 42.81524715 -15.17924879 40.70291312 -15.18310547 38.59057617 C-15.19280374 35.37099303 -15.22383459 32.1520504 -15.25537109 28.93261719 C-15.26190236 26.87728242 -15.26715234 24.82194311 -15.27099609 22.76660156 C-15.2833429 21.80908493 -15.2956897 20.8515683 -15.30841064 19.86503601 C-15.28596062 13.07627769 -14.44511241 8.13254437 -9.94287109 2.78613281 C-6.73408809 0.17899662 -3.98741133 0.03078942 0 0 Z M-3.94287109 12.16113281 C-4.38649962 14.20769015 -4.38649962 14.20769015 -4.29931641 16.5949707 C-4.3023175 17.51254654 -4.3053186 18.43012238 -4.30841064 19.37550354 C-4.29606384 20.36823776 -4.28371704 21.36097198 -4.27099609 22.38378906 C-4.26912292 23.39960556 -4.26724976 24.41542206 -4.26531982 25.46202087 C-4.25859005 27.61151405 -4.24465733 29.76099479 -4.22412109 31.91040039 C-4.19296672 35.21349368 -4.18315218 38.51611031 -4.17724609 41.81933594 C-4.16807659 43.90332617 -4.15770099 45.98731152 -4.14599609 48.07128906 C-4.14174622 49.06604752 -4.13749634 50.06080597 -4.13311768 51.08570862 C-4.12351013 52.00013229 -4.11390259 52.91455597 -4.10400391 53.85668945 C-4.0971759 54.66562149 -4.0903479 55.47455353 -4.08331299 56.30799866 C-4.14407944 58.17714086 -4.14407944 58.17714086 -2.94287109 59.16113281 C-1.47481817 59.25936026 -0.00209649 59.28911651 1.46923828 59.29052734 C2.87574646 59.29525558 2.87574646 59.29525558 4.31066895 59.30007935 C5.33043823 59.29805511 6.35020752 59.29603088 7.40087891 59.29394531 C8.4403064 59.29490204 9.47973389 59.29585876 10.55065918 59.29684448 C12.75317444 59.29752644 14.9556917 59.29567108 17.15820312 59.29150391 C20.5425261 59.28615589 23.92671634 59.2914484 27.31103516 59.29785156 C29.44515003 59.29719078 31.57926483 59.29590963 33.71337891 59.29394531 C34.73314819 59.29596954 35.75291748 59.29799377 36.80358887 59.30007935 C37.74126099 59.29692719 38.67893311 59.29377502 39.64501953 59.29052734 C40.47473267 59.28973175 41.3044458 59.28893616 42.15930176 59.28811646 C44.06814414 59.36955833 44.06814414 59.36955833 45.05712891 58.16113281 C45.16563297 56.72941907 45.20614274 55.29245772 45.21826172 53.85668945 C45.22786926 52.94226578 45.23747681 52.0278421 45.24737549 51.08570862 C45.25162537 50.09095016 45.25587524 49.09619171 45.26025391 48.07128906 C45.26880402 46.5489994 45.26880402 46.5489994 45.27752686 44.99595642 C45.28699221 42.84472705 45.2935169 40.69348308 45.29736328 38.54223633 C45.30707745 35.24111831 45.33809017 31.94062037 45.36962891 28.63964844 C45.37615765 26.5543657 45.38140863 24.46907848 45.38525391 22.38378906 C45.39760071 21.39105484 45.40994751 20.39832062 45.42266846 19.37550354 C45.41966736 18.4579277 45.41666626 17.54035187 45.41357422 16.5949707 C45.41721985 15.78524307 45.42086548 14.97551544 45.42462158 14.14125061 C45.303349 13.48781174 45.18207642 12.83437286 45.05712891 12.16113281 C41.96692796 10.10099885 41.31140779 9.90977568 37.81689453 9.90234375 C36.96591187 9.89603943 36.1149292 9.88973511 35.23815918 9.88323975 C34.32248169 9.88728821 33.4068042 9.89133667 32.46337891 9.89550781 C31.0487738 9.89263763 31.0487738 9.89263763 29.60559082 9.88970947 C27.61173231 9.88834851 25.61786492 9.89203878 23.62402344 9.90039062 C20.56897105 9.91109133 17.51450671 9.9004923 14.45947266 9.88769531 C12.52327344 9.88901692 10.58707459 9.89157935 8.65087891 9.89550781 C7.73520142 9.89145935 6.81952393 9.88741089 5.87609863 9.88323975 C5.02511597 9.88954407 4.1741333 9.89584839 3.29736328 9.90234375 C2.17509338 9.90473053 2.17509338 9.90473053 1.03015137 9.90716553 C-1.26301265 10.05393999 -1.26301265 10.05393999 -3.94287109 12.16113281 Z " fill="#000000" transform="translate(51.94287109375,295.8388671875)"/>
<path d="M0 0 C0.89031418 -0.00708481 1.78062836 -0.01416962 2.69792175 -0.02146912 C3.67719635 -0.0189917 4.65647095 -0.01651428 5.66542053 -0.01396179 C7.20944801 -0.02162819 7.20944801 -0.02162819 8.78466797 -0.02944946 C12.20078787 -0.04339475 15.61670713 -0.04238497 19.03285217 -0.04008484 C21.3993538 -0.04396906 23.76585472 -0.04830316 26.13235474 -0.05307007 C31.09815224 -0.06054292 36.06387866 -0.06023329 41.02967834 -0.05497742 C47.40346081 -0.0491815 53.7769528 -0.06611183 60.15068722 -0.08932209 C65.03962922 -0.10403088 69.92850081 -0.10493502 74.81746101 -0.10181236 C77.16787351 -0.10232702 79.51828981 -0.10759156 81.86868095 -0.11762428 C85.15138167 -0.12991593 88.4335107 -0.12324054 91.71620178 -0.11161804 C92.69345215 -0.11926178 93.67070251 -0.12690552 94.67756653 -0.13478088 C95.57070053 -0.12776657 96.46383453 -0.12075226 97.3840332 -0.11352539 C98.16035064 -0.11369313 98.93666807 -0.11386087 99.73651028 -0.1140337 C102.31312441 0.36419106 103.22910196 1.15359273 104.75550842 3.26069641 C104.32072581 8.69547902 104.32072581 8.69547902 102.75550842 10.26069641 C101.37106312 10.36259026 99.9814874 10.39587284 98.5933075 10.40113831 C97.69595383 10.40684845 96.79860016 10.41255859 95.87405396 10.41844177 C94.38572304 10.42011856 94.38572304 10.42011856 92.86732483 10.42182922 C91.82836563 10.42679413 90.78940643 10.43175903 89.71896362 10.43687439 C86.26499278 10.45153877 82.81106785 10.45830503 79.35707092 10.46382141 C76.96672056 10.46956924 74.57637022 10.47532701 72.1860199 10.48109436 C67.16718835 10.49161646 62.14837289 10.49745124 57.12953186 10.50093079 C50.68735989 10.50641876 44.24539895 10.53044837 37.80329323 10.55890274 C32.86374789 10.57749364 27.92425374 10.58273282 22.98467636 10.58426666 C20.60913819 10.58730163 18.2336011 10.59535834 15.85809708 10.60845184 C12.53939347 10.62543849 9.22121008 10.62365007 5.90248108 10.61714172 C4.42022285 10.6309639 4.42022285 10.6309639 2.90802002 10.64506531 C1.55353004 10.63671158 1.55353004 10.63671158 0.17167664 10.62818909 C-1.00580926 10.63038893 -1.00580926 10.63038893 -2.20708275 10.63263321 C-4.78424946 10.16216154 -5.69921747 9.34760991 -7.24449158 7.26069641 C-6.85889421 1.99086566 -5.25565303 0.01390464 0 0 Z " fill="#000000" transform="translate(44.24449157714844,425.7393035888672)"/>
<path d="M0 0 C1.8171476 -0.01429802 1.8171476 -0.01429802 3.67100525 -0.02888489 C4.98557205 -0.02797348 6.30013885 -0.02706207 7.65454102 -0.02612305 C9.01213208 -0.03000885 10.36972192 -0.03434328 11.72731018 -0.03910828 C14.57459451 -0.04657575 17.42175485 -0.04627559 20.26904297 -0.04101562 C23.91887261 -0.03522192 27.56819463 -0.05214635 31.21794033 -0.0753603 C34.02235382 -0.09008905 36.82664485 -0.09097052 39.63109016 -0.08785057 C41.63139706 -0.08861421 43.63168495 -0.10249612 45.63194275 -0.11653137 C46.84652664 -0.11030258 48.06111053 -0.10407379 49.3125 -0.09765625 C50.9189463 -0.09860039 50.9189463 -0.09860039 52.55784607 -0.0995636 C55.22094727 0.2746582 55.22094727 0.2746582 57.09803772 1.60652161 C58.22094727 3.2746582 58.22094727 3.2746582 58.09594727 6.3371582 C57.22094727 9.2746582 57.22094727 9.2746582 54.22094727 11.2746582 C51.64723206 11.54208374 51.64723206 11.54208374 48.52783203 11.56518555 C47.35974503 11.57794525 46.19165802 11.59070496 44.98817444 11.60385132 C43.72565353 11.60607697 42.46313263 11.60830261 41.16235352 11.6105957 C39.21860085 11.6205809 39.21860085 11.6205809 37.23558044 11.63076782 C34.49263172 11.64273955 31.74980894 11.64644873 29.00683594 11.64526367 C25.49488081 11.64506039 21.98373406 11.67237118 18.47197056 11.70680809 C15.11875235 11.73441429 11.76568395 11.7332259 8.41235352 11.7355957 C7.15185684 11.74996674 5.89136017 11.76433777 4.59266663 11.77914429 C3.42142746 11.77299103 2.25018829 11.76683777 1.04345703 11.76049805 C0.01325943 11.76334808 -1.01693817 11.76619812 -2.07835388 11.76913452 C-5.48684891 11.1450664 -6.69957039 9.99961003 -8.77905273 7.2746582 C-8.47830921 0.95904427 -5.82600211 0.02508266 0 0 Z " fill="#000000" transform="translate(45.779052734375,392.725341796875)"/>
<path d="M0 0 C1.8171476 -0.01429802 1.8171476 -0.01429802 3.67100525 -0.02888489 C4.98557205 -0.02797348 6.30013885 -0.02706207 7.65454102 -0.02612305 C9.01213208 -0.03000885 10.36972192 -0.03434328 11.72731018 -0.03910828 C14.57459451 -0.04657575 17.42175485 -0.04627559 20.26904297 -0.04101562 C23.91887261 -0.03522192 27.56819463 -0.05214635 31.21794033 -0.0753603 C34.02235382 -0.09008905 36.82664485 -0.09097052 39.63109016 -0.08785057 C41.63139706 -0.08861421 43.63168495 -0.10249612 45.63194275 -0.11653137 C46.84652664 -0.11030258 48.06111053 -0.10407379 49.3125 -0.09765625 C50.9189463 -0.09860039 50.9189463 -0.09860039 52.55784607 -0.0995636 C55.22094727 0.2746582 55.22094727 0.2746582 57.06288147 1.64167786 C58.22094727 3.2746582 58.22094727 3.2746582 58.65844727 5.7746582 C58.22094727 8.2746582 58.22094727 8.2746582 56.55751038 9.90763855 C53.63842598 11.61546562 51.77064025 11.64903299 48.3984375 11.64697266 C47.22719833 11.65320145 46.05595917 11.65943024 44.84922791 11.66584778 C43.58873123 11.65663803 42.32823456 11.64742828 41.02954102 11.63793945 C39.73274918 11.63843796 38.43595734 11.63893646 37.09986877 11.63945007 C34.35861542 11.63936049 31.617657 11.62895794 28.87646484 11.61083984 C25.36352669 11.58813039 21.85101839 11.58761396 18.338027 11.59435749 C14.98514927 11.59850217 11.63240393 11.58652685 8.27954102 11.57543945 C6.38575966 11.57680656 6.38575966 11.57680656 4.45372009 11.57820129 C2.70158958 11.56390327 2.70158958 11.56390327 0.9140625 11.54931641 C-0.11533951 11.54470901 -1.14474152 11.54010162 -2.20533752 11.53535461 C-4.77905273 11.2746582 -4.77905273 11.2746582 -7.77905273 9.2746582 C-8.09155273 5.7746582 -8.09155273 5.7746582 -7.77905273 2.2746582 C-5.09593915 -0.40845538 -3.75081125 0.01614835 0 0 Z " fill="#000000" transform="translate(284.779052734375,392.725341796875)"/>
<path d="M0 0 C1.8170343 -0.0238678 1.8170343 -0.0238678 3.67077637 -0.04821777 C4.98018188 -0.04841919 6.2895874 -0.04862061 7.63867188 -0.04882812 C8.99483557 -0.05592857 10.35099626 -0.06362739 11.70715332 -0.07189941 C14.54850621 -0.08534514 17.38958123 -0.08691241 20.23095703 -0.08105469 C23.87324311 -0.07515328 27.51419859 -0.1057647 31.15622711 -0.14617157 C33.95639231 -0.17201155 36.75623531 -0.17492959 39.5565033 -0.17127991 C41.55243234 -0.17379817 43.54829319 -0.19852135 45.54406738 -0.22351074 C47.36110168 -0.20955261 47.36110168 -0.20955261 49.21484375 -0.1953125 C50.28279175 -0.19736694 51.35073975 -0.19942139 52.4510498 -0.20153809 C55.10742188 0.41992188 55.10742188 0.41992188 57.01867676 2.78649902 C58.10742188 5.41992188 58.10742188 5.41992188 57.41992188 8.16992188 C56.10742188 10.41992188 56.10742188 10.41992188 54.10742188 11.41992188 C52.24982409 11.52625517 50.38842996 11.56873994 48.52783203 11.58105469 C47.35966949 11.59066223 46.19150696 11.60026978 44.98794556 11.61016846 C43.08642227 11.61654327 43.08642227 11.61654327 41.14648438 11.62304688 C39.20060928 11.63159698 39.20060928 11.63159698 37.21542358 11.64031982 C34.4665284 11.65082863 31.71766245 11.656672 28.96875 11.66015625 C25.44908293 11.66563939 21.92980303 11.68966346 18.41025734 11.7181282 C15.05150691 11.74125083 11.6928103 11.74320403 8.33398438 11.74804688 C7.07035065 11.76039368 5.80671692 11.77274048 4.50479126 11.78546143 C3.3303244 11.78246033 2.15585754 11.77945923 0.94580078 11.77636719 C-0.08741302 11.78001282 -1.12062683 11.78365845 -2.18515015 11.78741455 C-5.29350183 11.3655025 -6.66959753 10.60482921 -8.89257812 8.41992188 C-9.33007812 5.91992188 -9.33007812 5.91992188 -8.89257812 3.41992188 C-6.42273442 -0.05346654 -4.09504856 0.0322834 0 0 Z " fill="#000000" transform="translate(125.892578125,392.580078125)"/>
<path d="M0 0 C1.19133545 -0.00630432 2.3826709 -0.01260864 3.61010742 -0.019104 C4.89763916 -0.01505554 6.1851709 -0.01100708 7.51171875 -0.00683594 C8.8454597 -0.00818331 10.17920018 -0.01012444 11.51293945 -0.01263428 C14.30717651 -0.01558218 17.10128563 -0.01129873 19.89550781 -0.00195312 C23.47683394 0.00944136 27.05786029 0.00288008 30.63917542 -0.00909805 C33.3929673 -0.01632574 36.14668815 -0.01402457 38.90048218 -0.00884247 C40.86310012 -0.0068598 42.82572083 -0.01293286 44.78833008 -0.019104 C46.57533325 -0.00964752 46.57533325 -0.00964752 48.3984375 0 C49.44862061 0.00159119 50.49880371 0.00318237 51.58081055 0.00482178 C54.19921875 0.25878906 54.19921875 0.25878906 57.19921875 2.25878906 C57.63671875 5.19628906 57.63671875 5.19628906 57.19921875 8.25878906 C54.12045085 11.33198763 51.74248576 11.63690429 47.484375 11.64697266 C46.33638428 11.65642914 45.18839355 11.66588562 44.00561523 11.67562866 C42.15238647 11.66651962 42.15238647 11.66651962 40.26171875 11.65722656 C38.35338257 11.66153183 38.35338257 11.66153183 36.40649414 11.66592407 C33.71632266 11.66796583 31.02696871 11.66393688 28.33691406 11.64990234 C24.89345978 11.63281021 21.450707 11.64265471 18.00727844 11.66061974 C14.7170669 11.67408312 11.42693945 11.66464941 8.13671875 11.65722656 C6.90123291 11.66329926 5.66574707 11.66937195 4.39282227 11.67562866 C3.24483154 11.66617218 2.09684082 11.6567157 0.9140625 11.64697266 C-0.60006226 11.64339249 -0.60006226 11.64339249 -2.14477539 11.63973999 C-5.22478991 11.1979735 -6.60919019 10.44641566 -8.80078125 8.25878906 C-9.23828125 5.19628906 -9.23828125 5.19628906 -8.80078125 2.25878906 C-5.35249217 -0.04007033 -4.06123895 0.00615339 0 0 Z " fill="#000000" transform="translate(205.80078125,392.7412109375)"/>
</svg>
